<svg xmlns="http://www.w3.org/2000/svg" xmlns:xlink="http://www.w3.org/1999/xlink" width="600" height="400" viewBox="0 0 600 400"><defs><filter id="a" x="212" y="24" width="180" height="180" filterUnits="userSpaceOnUse"><feOffset dx="2" dy="4" input="SourceAlpha"/><feGaussianBlur stdDeviation="5" result="b"/><feFlood flood-opacity="0.161"/><feComposite operator="in" in2="b"/><feComposite in="SourceGraphic"/></filter><filter id="c" x="212" y="204" width="180" height="180" filterUnits="userSpaceOnUse"><feOffset dx="2" dy="4" input="SourceAlpha"/><feGaussianBlur stdDeviation="5" result="d"/><feFlood flood-opacity="0.161"/><feComposite operator="in" in2="d"/><feComposite in="SourceGraphic"/></filter><filter id="e" x="392" y="204" width="180" height="180" filterUnits="userSpaceOnUse"><feOffset dx="2" dy="4" input="SourceAlpha"/><feGaussianBlur stdDeviation="5" result="f"/><feFlood flood-opacity="0.161"/><feComposite operator="in" in2="f"/><feComposite in="SourceGraphic"/></filter><filter id="g" x="32" y="204" width="180" height="180" filterUnits="userSpaceOnUse"><feOffset dx="2" dy="4" input="SourceAlpha"/><feGaussianBlur stdDeviation="5" result="h"/><feFlood flood-opacity="0.161"/><feComposite operator="in" in2="h"/><feComposite in="SourceGraphic"/></filter><clipPath id="j"><rect width="600" height="400"/></clipPath></defs><g id="i" clip-path="url(#j)"><g transform="translate(0 5)"><g transform="translate(0 -20)"><g transform="matrix(1, 0, 0, 1, 0, 15)" filter="url(#a)"><rect width="150" height="150" rx="10" transform="translate(225 35)" fill="#fff"/></g><text transform="translate(274 154)" fill="#1d1c1c" font-size="80" font-family="Merriweather-Regular, Merriweather"><tspan x="0" y="0">Z</tspan></text></g><g transform="translate(0 160)"><g transform="matrix(1, 0, 0, 1, 0, -165)" filter="url(#c)"><rect width="150" height="150" rx="10" transform="translate(225 215)" fill="#fff"/></g><text transform="translate(300 154)" fill="#1d1c1c" font-size="80" font-family="Merriweather-Regular, Merriweather"><tspan x="-23.76" y="0">S</tspan></text></g><g transform="translate(180 160)"><g transform="matrix(1, 0, 0, 1, -180, -165)" filter="url(#e)"><rect width="150" height="150" rx="10" transform="translate(405 215)" fill="#fff"/></g><text transform="translate(300 154)" fill="#1d1c1c" font-size="80" font-family="Merriweather-Regular, Merriweather"><tspan x="-30.32" y="0">D</tspan></text></g><g transform="translate(-180 160)"><g transform="matrix(1, 0, 0, 1, 180, -165)" filter="url(#g)"><rect width="150" height="150" rx="10" transform="translate(45 215)" fill="#fff"/></g><text transform="translate(300 154)" fill="#1d1c1c" font-size="80" font-family="Merriweather-Regular, Merriweather"><tspan x="-29.08" y="0">Q</tspan></text></g></g></g></svg>