<svg xmlns="http://www.w3.org/2000/svg" viewBox="0 0 39.93 72.03"><defs><style>.cls-1{fill:#413728;}.cls-2{fill:#543220;}.cls-3{fill:#e4c5a5;}.cls-4{fill:#0c1412;}.cls-5{fill:#42251f;}.cls-6{fill:#504648;}.cls-7{fill:#eceee3;}</style></defs><title>arya_stark</title><g id="Calque_2" data-name="Calque 2"><g id="perso_3" data-name="perso 3"><g id="arya_stark"><path class="cls-1" d="M28,36V28H24v4H12V28h-4v4H6v4H0v8H31.89V36Zm-8,3.94H15.87V36H20Z"/><rect class="cls-2" x="15.87" y="36" width="4.12" height="3.94"/><polygon class="cls-3" points="31.89 16.01 31.89 28 27.97 28 27.97 28.02 24.04 28.02 24.04 32.01 11.98 32.01 11.98 28 7.94 28 7.94 24.05 7.93 24.05 7.93 12.01 12 12.01 12 8.02 15.96 8.02 15.96 12.01 23.99 12.01 23.99 16.01 31.89 16.01"/><polygon class="cls-4" points="39.91 12.01 39.91 24.05 35.95 24.05 35.95 28 32.37 28 32.37 31.99 27.97 31.99 27.97 28 31.89 28 31.89 16.01 23.99 16.01 23.99 12.01 15.96 12.01 15.96 8.02 12 8.02 12 12.01 7.93 12.01 7.93 24.05 7.94 24.05 7.94 28 3.96 28 3.96 24.05 0 24.05 0 8.02 3.96 8.02 3.96 3.97 7.98 3.97 7.98 0 27.94 0 27.94 3.97 35.95 3.97 35.95 12.01 39.91 12.01"/><rect class="cls-2" y="44.05" width="4.02" height="7.98"/><rect class="cls-2" x="27.97" y="44.05" width="4.02" height="7.98"/><polygon class="cls-5" points="27.97 44.05 27.97 52.03 19.99 52.03 19.99 48.04 15.94 48.04 15.94 52.03 7.96 52.03 7.96 44.05 27.97 44.05"/><rect class="cls-3" y="52.03" width="4.02" height="4.02"/><rect class="cls-3" x="27.97" y="52.03" width="4.02" height="4.02"/><polygon class="cls-6" points="27.97 52.03 27.97 63.99 23.98 63.99 23.98 56.05 11.95 56.05 11.95 63.99 7.96 63.99 7.96 52.03 15.94 52.03 15.94 48.04 19.99 48.04 19.99 52.03 27.97 52.03"/><rect x="7.96" y="63.99" width="3.99" height="8.04"/><rect x="23.98" y="63.99" width="3.99" height="8.03"/><rect class="cls-7" x="31.99" y="56.05" width="3.99" height="7.94"/><rect class="cls-7" x="35.98" y="63.99" width="3.95" height="8.03"/></g></g></g></svg>