<svg xmlns="http://www.w3.org/2000/svg" viewBox="0 0 40.01 92.03"><defs><style>.cls-1{fill:#48292c;}.cls-2{fill:#ecc59b;}.cls-3{fill:#171821;}.cls-4{fill:#2b394b;}.cls-5{fill:#3e2932;}.cls-6{fill:#4c4548;}.cls-7{fill:#8a8587;}.cls-8{fill:#423e3f;}.cls-9{fill:#80898f;}</style></defs><title>broon</title><g id="Calque_2" data-name="Calque 2"><g id="perso_6" data-name="perso 6"><g id="broon"><path class="cls-1" d="M15.83,24V36H31.92V24ZM20,32V27.91h8V32Z"/><rect class="cls-2" x="19.96" y="27.91" width="8" height="4.11"/><polygon class="cls-1" points="35.91 4 35.91 8 23.92 8 23.92 11.94 20.03 11.94 20.03 15.89 15.83 15.89 15.83 8 12.03 8 12.03 11.99 7.94 11.99 7.94 27.88 12.03 27.88 12.03 31.97 3.94 31.97 3.94 8 7.94 8 7.94 4 12.03 4 12.03 0 31.92 0 31.92 4 35.91 4"/><rect class="cls-1" x="12.03" y="15.89" width="3.8" height="8.09"/><polygon class="cls-1" points="40.01 19.98 40.01 31.97 35.91 31.97 35.91 8 37.31 8 37.31 19.98 40.01 19.98"/><rect class="cls-3" x="0.84" y="23.98" width="3.1" height="3.9"/><rect class="cls-3" x="8.04" y="31.97" width="4" height="4"/><rect class="cls-3" x="27.96" y="48.06" width="3.96" height="3.96"/><rect class="cls-3" x="27.96" y="35.89" width="3.96" height="8.13"/><rect class="cls-3" x="23.88" y="44.02" width="4.03" height="4.04"/><polygon class="cls-3" points="27.91 60.03 31.92 60.03 31.92 64.07 11.87 64.07 11.87 60.03 16.05 60.03 16.05 44.02 19.94 44.02 19.94 60.03 23.88 60.03 23.88 52.06 27.91 52.06 27.91 60.03"/><rect class="cls-3" x="7.9" y="48.06" width="3.97" height="8"/><rect class="cls-3" x="12.04" y="84.03" width="3.95" height="8"/><rect class="cls-3" x="23.97" y="84.03" width="4" height="8"/><rect class="cls-4" x="11.87" y="64.07" width="8.06" height="8.06"/><rect class="cls-4" x="23.97" y="64.07" width="8.06" height="8.06"/><rect class="cls-4" x="12.04" y="80.01" width="4.03" height="4.03"/><rect class="cls-4" x="23.97" y="80.01" width="4.03" height="4.03"/><rect class="cls-4" x="3.93" y="56.06" width="3.97" height="3.97"/><rect class="cls-4" x="3.93" y="44.02" width="12.13" height="4.04"/><rect class="cls-4" x="11.87" y="48.06" width="4.18" height="11.97"/><rect class="cls-4" x="19.94" y="48.06" width="3.94" height="11.97"/><rect class="cls-4" x="27.91" y="56.06" width="4.13" height="3.97"/><rect class="cls-4" x="27.91" y="44.02" width="8.05" height="4.04"/><rect class="cls-5" x="3.93" y="60.03" width="3.97" height="8.07"/><rect class="cls-5" x="31.92" y="60.03" width="4.13" height="8.07"/><polygon class="cls-2" points="12.03 15.89 12.03 23.98 15.83 23.98 15.83 35.97 12.04 35.97 12.04 31.97 12.03 31.97 12.03 27.88 7.94 27.88 7.94 11.99 12.03 11.99 12.03 8 15.83 8 15.83 15.89 12.03 15.89"/><rect class="cls-6" x="12.04" y="35.97" width="4.01" height="4.01"/><rect class="cls-6" x="16.05" y="39.98" width="3.89" height="4.04"/><polygon class="cls-7" points="27.96 35.97 27.96 44.02 19.94 44.02 19.94 39.98 16.05 39.98 16.05 35.97 27.96 35.97"/><rect class="cls-6" x="19.94" y="44.02" width="3.94" height="4.04"/><rect class="cls-6" x="23.88" y="48.06" width="4.03" height="4"/><rect class="cls-6" x="28" y="52.02" width="4.04" height="4.04"/><rect class="cls-7" y="39.99" width="12.04" height="4.03"/><rect class="cls-5" x="12.04" y="39.98" width="4.01" height="4.04"/><rect class="cls-7" x="3.93" y="35.97" width="8.11" height="4.02"/><rect class="cls-7" x="3.93" y="48.06" width="3.97" height="8"/><rect class="cls-7" x="31.92" y="35.97" width="4.04" height="8.05"/><rect class="cls-7" x="35.99" y="39.99" width="4.02" height="4.02"/><rect class="cls-7" x="31.92" y="48.06" width="4.13" height="8"/><rect class="cls-8" x="31.92" y="56.06" width="4.13" height="3.97"/><polygon class="cls-2" points="35.91 8 35.91 31.03 31.92 31.03 31.92 23.98 15.83 23.98 15.83 15.89 20.03 15.89 20.03 11.94 23.92 11.94 23.92 8 35.91 8"/><rect class="cls-8" x="31.92" y="31.03" width="3.99" height="0.94"/><rect class="cls-9" x="11.87" y="72.13" width="8.07" height="3.69"/><rect class="cls-9" x="11.87" y="75.82" width="4.19" height="4.19"/><rect class="cls-9" x="23.97" y="72.13" width="8.06" height="3.87"/><rect class="cls-9" x="23.97" y="76" width="4.03" height="4"/></g></g></g></svg>