<svg xmlns="http://www.w3.org/2000/svg" viewBox="0 0 36.07 80.05"><defs><style>.cls-1{fill:#c27c33;}.cls-2{fill:#6b2239;}.cls-3{fill:#fcc186;}.cls-4{fill:#8d5f31;}.cls-5{fill:#371926;}.cls-6{fill:#1a1e01;}.cls-7{fill:#6a263a;}</style></defs><title>cersey_lannister</title><g id="Calque_2" data-name="Calque 2"><g id="perso_4" data-name="perso 4"><g id="cersey_lannister"><polygon class="cls-1" points="36.07 4 36.07 28.02 32.37 28.02 32.37 55.97 28.19 55.97 28.19 44.09 24 44.09 24 28.02 32.01 28.02 32.01 12.1 28.01 12.1 28.01 8 16.03 8 16.03 12.1 11.98 12.1 11.98 15.91 8.05 15.91 8.05 28.02 12.04 28.02 12.04 55.97 8.03 55.97 8.03 44.05 4.02 44.05 4.02 28.08 0 28.08 0 7.99 4.02 7.99 4.02 3.93 8 3.93 8 0 32.01 0 32.01 4 36.07 4"/><rect class="cls-2" x="12.04" y="32.03" width="3.97" height="19.97"/><polygon class="cls-3" points="32.01 12.1 32.01 28.02 24 28.02 24 40.03 16.01 40.03 16.01 32.03 12.04 32.03 12.04 28.02 8.05 28.02 8.05 15.91 11.98 15.91 11.98 12.1 16.03 12.1 16.03 8 28.01 8 28.01 12.1 32.01 12.1"/><rect class="cls-2" x="16.01" y="40.03" width="8.06" height="11.97"/><rect class="cls-2" x="24.07" y="44.09" width="3.96" height="7.91"/><rect class="cls-2" x="32.37" y="44.09" width="3.7" height="11.88"/><rect class="cls-2" x="4.02" y="44.05" width="4.01" height="7.95"/><rect class="cls-2" y="48.05" width="4.02" height="7.92"/><rect class="cls-4" x="32.37" y="32.03" width="3.7" height="12.06"/><rect class="cls-4" y="32.03" width="4.02" height="16.02"/><rect class="cls-3" x="32.02" y="55.97" width="4.05" height="4.05"/><rect class="cls-3" y="55.97" width="4.05" height="4.05"/><polygon class="cls-5" points="12.04 55.97 12.04 64.05 7.97 64.05 7.97 72.19 4.05 72.19 4.05 67.88 0 67.88 0 60.02 4.05 60.02 4.05 52.01 8.05 52.01 8.05 55.97 12.04 55.97"/><polygon class="cls-5" points="36.07 60.02 36.07 72.04 28.78 72.04 28.78 70.06 30.21 70.06 30.21 68.08 32.02 68.08 32.02 60.02 36.07 60.02"/><polygon class="cls-6" points="32.02 56.03 32.02 60.02 12.04 60.02 12.04 52 28.03 52 28.03 56.03 32.02 56.03"/><polygon class="cls-7" points="28.78 70.06 28.78 72.04 32.02 72.04 32.02 80.05 7.97 80.05 7.97 64.05 12.04 64.05 12.04 60.02 32.02 60.02 32.02 68.08 30.21 68.08 30.21 70.06 28.78 70.06"/><rect class="cls-6" x="19.7" y="59.97" width="0.6" height="20.08"/></g></g></g></svg>