<svg xmlns="http://www.w3.org/2000/svg" viewBox="0 0 36.04 80.11"><defs><style>.cls-1{fill:#f3ead3;}.cls-2{fill:#51472e;}.cls-3{fill:#f7d6b2;}.cls-4{fill:#2b393e;}.cls-5{fill:#98beca;}.cls-6{fill:#3b6984;}</style></defs><title>daenarys_targaryen</title><g id="Calque_2" data-name="Calque 2"><g id="perso_5" data-name="perso 5"><g id="daenarys_targaryen"><polygon class="cls-1" points="36.04 24.01 36.04 36.01 31.96 36.01 31.96 43.97 28.65 43.97 28.65 48.06 24 48.06 24 44.07 28.01 44.07 28.01 28.11 31.96 28.11 31.96 24.01 36.04 24.01"/><polygon class="cls-1" points="36.04 8.08 36.04 20.06 31.96 20.06 31.96 12.12 28.01 12.12 28.01 8.07 15.98 8.07 15.98 12.12 7.83 12.12 7.83 24.01 12.07 24.01 12.07 36.04 15.93 36.04 15.93 48.06 12.07 48.06 12.07 43.97 7.99 43.97 7.99 36.04 3.92 36.04 3.92 24.01 0 24.01 0 12.12 3.92 12.12 3.92 4.01 7.83 4.01 7.83 0 28.01 0 28.01 4.03 31.96 4.03 31.96 8.08 36.04 8.08"/><rect class="cls-2" x="31.96" y="20.06" width="2.15" height="3.95"/><rect class="cls-2" x="12.07" y="31.98" width="11.93" height="4.06"/><polygon class="cls-3" points="31.96 12.12 31.96 28.11 28.01 28.11 28.01 43.97 24 43.97 24 44.07 15.93 44.07 15.93 36.04 24 36.04 24 31.98 12.07 31.98 12.07 24.01 7.83 24.01 7.83 12.12 15.98 12.12 15.98 8.07 28.01 8.07 28.01 12.12 31.96 12.12"/><rect class="cls-4" x="3.92" y="36.04" width="4.07" height="4.07"/><polygon class="cls-4" points="24 44.07 24 48.06 16.27 48.06 16.27 52.26 12.07 52.26 12.07 48.06 15.93 48.06 15.93 44.07 24 44.07"/><polygon class="cls-4" points="36.04 36.01 36.04 48.06 32.09 48.06 32.09 52.14 28.01 52.14 28.01 48.06 28.65 48.06 28.65 43.97 31.96 43.97 31.96 36.01 36.04 36.01"/><rect class="cls-2" x="7.99" y="43.97" width="4.08" height="4.09"/><rect class="cls-4" x="3.92" y="40.11" width="4.07" height="7.95"/><rect class="cls-3" x="7.99" y="48.06" width="4.08" height="11.97"/><rect class="cls-3" x="32.09" y="48.06" width="3.95" height="11.9"/><rect class="cls-2" x="5.95" y="48.06" width="2.04" height="11.97"/><polygon class="cls-4" points="28.01 72.05 28.01 80.11 23.74 80.11 23.74 72.05 20.03 72.05 20.03 80.11 16.07 80.11 16.07 64.12 24 64.12 24 72.05 28.01 72.05"/><rect class="cls-5" x="12.07" y="68.12" width="4" height="11.99"/><rect class="cls-5" x="20.03" y="72.05" width="3.71" height="8.06"/><rect class="cls-5" x="24" y="68.12" width="4.01" height="3.93"/><polygon class="cls-6" points="32.09 52.14 32.09 72.05 28.01 72.05 28.01 68.12 24 68.12 24 64.12 16.07 64.12 16.07 68.12 12.07 68.12 12.07 72.05 7.99 72.05 7.99 60.03 12.07 60.03 12.07 52.26 16.27 52.26 16.27 48.06 28.01 48.06 28.01 52.14 32.09 52.14"/></g></g></g></svg>