<svg xmlns="http://www.w3.org/2000/svg" viewBox="0 0 44.04 83.99"><defs><style>.cls-1{fill:#341300;}.cls-2{fill:#0d0b1f;}.cls-3{fill:#eeeee5;}.cls-4{fill:#9d8977;}.cls-5{fill:#2f3949;}.cls-6{fill:#464649;}.cls-7{fill:#fec185;}</style></defs><title>John Snow</title><g id="Calque_2" data-name="Calque 2"><g id="perso1"><g id="John_Snow" data-name="John Snow"><polygon class="cls-1" points="35.98 31.95 35.98 35.99 12.02 35.99 12.02 31.95 16.04 31.95 16.04 27.96 19.99 27.96 19.99 31.95 35.98 31.95"/><polygon class="cls-1" points="44.04 11.93 44.04 19.86 40.03 19.86 40.03 31.95 32.07 31.95 32.07 27.84 35.98 27.84 35.98 11.93 31.82 11.93 31.82 7.9 28.01 7.9 28.01 11.93 20.01 11.93 20.01 15.91 12.02 15.91 12.02 31.95 8.02 31.95 8.02 27.96 4.03 27.96 4.03 19.95 0 19.95 0 11.95 4.03 11.95 4.03 3.89 8.02 3.89 8.02 0 35.98 0 35.98 3.81 40.03 3.81 40.03 11.93 44.04 11.93"/><polygon class="cls-2" points="40.03 39.25 40.03 67.7 35.98 67.7 35.98 83.99 7.88 83.99 7.88 63.6 4.03 63.6 4.03 43.22 12.02 43.22 12.02 47.32 16.03 47.32 16.03 63.6 23.98 63.6 23.98 67.7 32.07 67.7 32.07 43.22 35.98 43.22 35.98 39.25 40.03 39.25"/><rect class="cls-3" x="16.03" y="51.94" width="4.12" height="7.97"/><polygon class="cls-4" points="20.15 35.99 20.15 48.31 16.03 48.31 16.03 48.16 12.02 48.16 12.02 44.02 4.03 44.02 4.03 35.99 20.15 35.99"/><polygon class="cls-4" points="40.03 31.95 40.03 39.9 35.98 39.9 35.98 43.81 32.07 43.81 32.07 48 28.01 48 28.01 35.99 35.98 35.99 35.98 31.95 40.03 31.95"/><rect class="cls-5" x="16.03" y="48.17" width="4.12" height="3.77"/><rect class="cls-5" x="28.01" y="48" width="4.06" height="3.94"/><rect class="cls-5" x="23.98" y="63.92" width="8.09" height="4.02"/><polygon class="cls-6" points="32.07 59.91 32.07 63.92 23.98 63.92 23.98 63.9 16.03 63.9 16.03 59.91 32.07 59.91"/><rect class="cls-6" x="28.01" y="51.94" width="4.06" height="3.99"/><rect class="cls-6" x="20.15" y="43.85" width="7.86" height="8.09"/><polygon class="cls-5" points="32.07 55.93 32.07 59.87 28.01 59.87 28.01 59.91 20.15 59.91 20.15 51.94 28.01 51.94 28.01 55.93 32.07 55.93"/><rect class="cls-5" x="20.15" y="35.99" width="7.86" height="7.86"/><rect class="cls-1" x="19.99" y="23.89" width="4.01" height="4.01"/><rect class="cls-1" x="28.03" y="23.92" width="4.04" height="3.92"/><polygon class="cls-7" points="35.98 11.93 35.98 27.84 32.07 27.84 32.07 23.88 28.01 23.88 28.01 27.84 28.03 27.84 28.03 27.9 32.07 27.9 32.07 31.95 20.03 31.95 20.03 27.9 24 27.9 24 23.88 20.03 23.88 20.03 23.89 19.99 23.89 19.99 27.9 16.04 27.9 16.04 27.96 15.99 27.96 15.99 31.95 12.02 31.95 12.02 15.91 20.01 15.91 20.01 11.93 28.01 11.93 28.01 7.9 31.82 7.9 31.82 11.93 35.98 11.93"/></g></g></g></svg>