<svg xmlns="http://www.w3.org/2000/svg" viewBox="0 0 28.13 48.45"><defs><style>.cls-1{fill:#f2b725;}.cls-2{fill:#fc9706;}.cls-3{fill:#ffbc00;}.cls-4{fill:#f27a0f;}</style></defs><title>movement_30%</title><g id="Calque_2" data-name="Calque 2"><g id="Calque_5" data-name="Calque 5"><g id="movement_30_" data-name="movement_30%"><rect class="cls-1" x="19.9" y="16.15" width="8.23" height="4.12"/><polygon class="cls-2" points="19.9 28.23 24.01 28.23 24.01 32.34 19.9 32.34 19.9 28.46 15.78 28.46 15.78 24.35 7.56 24.35 7.56 20.23 15.79 20.23 15.79 24.35 19.9 24.35 19.9 28.23"/><rect class="cls-3" x="11.67" y="15.82" width="4.12" height="4.11"/><rect class="cls-2" x="7.56" y="7.92" width="4.11" height="4.12"/><rect class="cls-3" x="4.12" y="28.23" width="4.11" height="4.11"/><rect class="cls-3" y="12.04" width="4.12" height="4.11"/><rect class="cls-4" x="19.9" y="0.25" width="4.11" height="4.11"/><rect class="cls-3" x="15.78" y="4.36" width="4.12" height="4.12"/><polygon class="cls-4" points="24.01 44.34 24.01 48.45 15.78 48.45 15.78 44.34 11.67 44.34 11.67 48.45 7.56 48.45 7.56 40.22 15.79 40.22 15.79 44.34 24.01 44.34"/><polygon class="cls-4" points="11.6 4.36 7.49 4.36 7.49 0.25 7.56 0.25 7.56 0 11.67 0 11.67 4.12 11.6 4.12 11.6 4.36"/></g></g></g></svg>