<svg xmlns="http://www.w3.org/2000/svg" viewBox="0 0 88.74 48.45"><defs><style>.cls-1{fill:#ffce00;}.cls-2{fill:#f27a0f;}.cls-3{fill:#f2b725;}.cls-4{fill:#ffbc00;}.cls-5{fill:#fc9706;}</style></defs><title>movement_60%</title><g id="Calque_2" data-name="Calque 2"><g id="Calque_4" data-name="Calque 4"><g id="movement_60_" data-name="movement_60%"><rect class="cls-1" y="36.11" width="4.12" height="4.12"/><rect class="cls-2" x="12.09" y="40.22" width="4.12" height="4.12"/><rect class="cls-3" x="77.47" y="19.87" width="4.7" height="4.22"/><rect class="cls-4" x="82.16" y="19.87" width="4.46" height="4.22"/><rect class="cls-5" x="79.52" y="15.79" width="4.68" height="4.08"/><rect class="cls-3" x="84.2" y="15.79" width="4.46" height="4.08"/><rect class="cls-4" x="81.97" y="12.06" width="4.46" height="4.08"/><rect class="cls-2" x="75.49" y="23.97" width="4.07" height="4.08"/><rect class="cls-4" x="75.49" y="32.34" width="4.07" height="4.08"/><rect class="cls-5" x="75.49" y="36.25" width="4.07" height="4.08"/><rect class="cls-3" x="83.59" y="29.16" width="4.07" height="4.08"/><rect class="cls-5" x="83.59" y="36.25" width="4.07" height="4.08"/><rect class="cls-3" x="79.52" y="24.09" width="4.07" height="12.16"/><polygon class="cls-1" points="71.64 19.95 75.71 19.95 75.71 24.02 71.64 24.02 71.64 28 67.56 28 67.56 23.93 71.64 23.93 71.64 19.95"/><rect class="cls-5" x="70.63" y="15.79" width="4.08" height="4.15"/><rect class="cls-4" x="68.59" y="11.13" width="4.08" height="4.66"/><rect class="cls-1" x="65.51" y="15.73" width="5.12" height="4.14"/><rect class="cls-4" x="60.94" y="15.91" width="3.84" height="3.84"/><rect class="cls-3" x="44.03" y="16.15" width="8.23" height="4.12"/><rect class="cls-5" x="56.32" y="15.77" width="4.11" height="4.12"/><rect class="cls-1" x="60.19" y="8.48" width="4.11" height="4.12"/><rect class="cls-4" x="63.45" y="4.36" width="4.11" height="4.12"/><rect class="cls-5" x="64.27" y="8.48" width="4.11" height="4.12"/><rect class="cls-1" x="68.57" y="8.48" width="4.11" height="4.12"/><rect class="cls-5" x="72.65" y="8.48" width="4.11" height="4.12"/><rect class="cls-2" x="71.51" y="4.36" width="4.11" height="4.12"/><rect class="cls-2" x="79.81" y="4.36" width="4.11" height="4.12"/><rect class="cls-1" x="60.43" y="31.91" width="3.96" height="3.91"/><rect class="cls-5" x="60.43" y="35.82" width="3.86" height="3.86"/><rect class="cls-3" x="64.39" y="31.91" width="3.86" height="3.91"/><rect class="cls-5" x="63.58" y="40.22" width="4.07" height="3.99"/><rect class="cls-2" x="67.65" y="40.22" width="3.99" height="3.99"/><rect class="cls-2" x="76.64" y="40.28" width="3.99" height="3.99"/><rect class="cls-2" x="84.63" y="40.28" width="3.99" height="3.99"/><rect class="cls-3" x="71.63" y="36.36" width="3.86" height="3.86"/><rect class="cls-1" x="71.63" y="31.91" width="3.86" height="4.51"/><rect class="cls-3" x="67.56" y="27.94" width="4.17" height="3.96"/><rect class="cls-5" x="71.63" y="28.05" width="3.86" height="3.86"/><rect class="cls-3" x="71.63" y="23.97" width="3.86" height="4.25"/><rect class="cls-4" x="60.43" y="20.13" width="3.84" height="3.84"/><rect class="cls-4" x="52.2" y="31.96" width="4.12" height="7.72"/><rect class="cls-3" x="56.32" y="28.08" width="4.11" height="3.88"/><polygon class="cls-5" points="44.03 28.23 48.14 28.23 48.14 32.34 44.03 32.34 44.03 28.46 39.91 28.46 39.91 24.35 31.69 24.35 31.69 20.23 39.92 20.23 39.92 24.35 44.03 24.35 44.03 28.23"/><rect class="cls-4" x="35.8" y="15.82" width="4.12" height="4.11"/><rect class="cls-5" x="31.69" y="7.92" width="4.11" height="4.12"/><rect class="cls-4" x="28.25" y="28.23" width="4.11" height="4.11"/><rect class="cls-4" x="24.13" y="12.04" width="4.12" height="4.11"/><rect class="cls-4" x="12.09" y="36.11" width="4.12" height="4.11"/><rect class="cls-5" x="49.01" y="40.22" width="4.12" height="4.12"/><rect class="cls-2" x="44.03" y="0.25" width="4.11" height="4.11"/><rect class="cls-4" x="39.91" y="4.36" width="4.12" height="4.12"/><rect class="cls-2" x="52.02" y="0.25" width="4.12" height="4.11"/><rect class="cls-2" x="75.66" y="0.25" width="4.12" height="4.11"/><rect class="cls-2" x="72.07" y="44.22" width="4.12" height="4.11"/><rect class="cls-2" x="80.1" y="44.22" width="4.12" height="4.11"/><rect class="cls-2" x="84.37" y="0.13" width="4.12" height="4.11"/><polygon class="cls-2" points="48.14 44.34 48.14 48.45 39.91 48.45 39.91 44.34 35.8 44.34 35.8 48.45 31.69 48.45 31.69 40.22 39.92 40.22 39.92 44.34 48.14 44.34"/><polygon class="cls-2" points="35.73 4.36 31.62 4.36 31.62 0.25 31.69 0.25 31.69 0 35.8 0 35.8 4.12 35.73 4.12 35.73 4.36"/><rect class="cls-3" x="84.5" y="8.56" width="4.24" height="3.97"/><rect class="cls-1" x="79.52" y="36.25" width="4.07" height="4.08"/></g></g></g></svg>