<svg xmlns="http://www.w3.org/2000/svg" viewBox="0 0 120.49 48.45"><defs><style>.cls-1{fill:#ffbc00;}.cls-2{fill:#ffce00;}.cls-3{fill:#dd9122;}.cls-4{fill:#f2b725;}.cls-5{fill:#f27a0f;}.cls-6{fill:#fc9706;}</style></defs><title>movement</title><g id="Calque_2" data-name="Calque 2"><g id="Calque_2-2" data-name="Calque 2"><g id="movement"><rect class="cls-1" x="91.68" y="29.04" width="4.07" height="4.22"/><rect class="cls-2" x="95.75" y="29.04" width="4.07" height="4.22"/><rect class="cls-3" x="105.28" y="29.04" width="9.63" height="4.22"/><rect class="cls-4" x="91.68" y="33.26" width="4.07" height="4.22"/><rect class="cls-4" x="104.27" y="20.74" width="4.3" height="4.22"/><rect class="cls-3" x="104.12" y="33.26" width="10.79" height="4.22"/><rect class="cls-1" x="91.68" y="37.45" width="4.07" height="4.22"/><rect class="cls-1" x="95.75" y="37.45" width="4.07" height="4.22"/><rect class="cls-3" x="99.82" y="37.45" width="15.09" height="4.22"/><rect class="cls-4" x="94.71" y="11.57" width="5.75" height="4.35"/><rect class="cls-3" x="100.46" y="11.57" width="3.04" height="4.35"/><rect class="cls-3" x="106.42" y="11.57" width="8.49" height="4.35"/><rect class="cls-4" x="99.82" y="33.29" width="4.3" height="4.22"/><rect class="cls-2" y="36.11" width="4.12" height="4.12"/><rect class="cls-5" x="12.09" y="40.22" width="4.12" height="4.12"/><rect class="cls-4" x="77.47" y="19.87" width="4.7" height="4.22"/><rect class="cls-1" x="82.16" y="19.87" width="4.46" height="4.22"/><rect class="cls-6" x="79.52" y="15.79" width="4.68" height="4.08"/><rect class="cls-4" x="84.2" y="15.79" width="4.46" height="4.08"/><rect class="cls-1" x="81.97" y="12.06" width="4.46" height="4.08"/><rect class="cls-2" x="86.43" y="12.06" width="4.46" height="4.08"/><rect class="cls-1" x="86.62" y="19.87" width="4.07" height="4.22"/><rect class="cls-2" x="88.66" y="15.79" width="4.07" height="4.08"/><rect class="cls-4" x="92.73" y="15.79" width="4.07" height="4.08"/><rect class="cls-4" x="90.69" y="19.87" width="4.07" height="4.22"/><rect class="cls-3" x="100.78" y="19.87" width="14.18" height="4.22"/><rect class="cls-4" x="94.76" y="19.87" width="6.02" height="4.22"/><rect class="cls-3" x="101.35" y="15.79" width="13.61" height="4.08"/><rect class="cls-5" x="75.49" y="23.97" width="4.07" height="4.08"/><rect class="cls-1" x="75.49" y="32.34" width="4.07" height="4.08"/><rect class="cls-6" x="75.49" y="36.25" width="4.07" height="4.08"/><rect class="cls-4" x="83.59" y="29.16" width="4.07" height="4.08"/><rect class="cls-1" x="87.66" y="29.16" width="4.07" height="11.17"/><rect class="cls-6" x="83.59" y="36.25" width="4.07" height="4.08"/><rect class="cls-4" x="79.52" y="24.09" width="4.07" height="12.16"/><polygon class="cls-2" points="71.64 19.95 75.71 19.95 75.71 24.02 71.64 24.02 71.64 28 67.56 28 67.56 23.93 71.64 23.93 71.64 19.95"/><rect class="cls-6" x="70.63" y="15.79" width="4.08" height="4.15"/><rect class="cls-1" x="68.59" y="11.13" width="4.08" height="4.66"/><rect class="cls-2" x="65.51" y="15.73" width="5.12" height="4.14"/><rect class="cls-1" x="60.94" y="15.91" width="3.84" height="3.84"/><rect class="cls-4" x="44.03" y="16.15" width="8.23" height="4.12"/><rect class="cls-6" x="56.32" y="15.77" width="4.11" height="4.12"/><rect class="cls-2" x="60.19" y="8.48" width="4.11" height="4.12"/><rect class="cls-1" x="63.45" y="4.36" width="4.11" height="4.12"/><rect class="cls-6" x="64.27" y="8.48" width="4.11" height="4.12"/><rect class="cls-2" x="68.57" y="8.48" width="4.11" height="4.12"/><rect class="cls-6" x="72.65" y="8.48" width="4.11" height="4.12"/><rect class="cls-3" x="77.72" y="8.48" width="37.24" height="4.12"/><rect class="cls-5" x="98.25" y="4.36" width="22.24" height="4.12"/><rect class="cls-5" x="71.51" y="4.36" width="4.11" height="4.12"/><rect class="cls-5" x="79.81" y="4.36" width="4.11" height="4.12"/><rect class="cls-5" x="88.83" y="4.36" width="4.11" height="4.12"/><rect class="cls-2" x="60.43" y="31.91" width="3.96" height="3.91"/><rect class="cls-6" x="60.43" y="35.82" width="3.86" height="3.86"/><rect class="cls-4" x="64.39" y="31.91" width="3.86" height="3.91"/><rect class="cls-6" x="63.58" y="40.22" width="4.07" height="3.99"/><rect class="cls-5" x="67.65" y="40.22" width="3.99" height="3.99"/><rect class="cls-5" x="76.64" y="40.28" width="3.99" height="3.99"/><rect class="cls-5" x="90.73" y="40.28" width="3.99" height="3.99"/><rect class="cls-5" x="84.63" y="40.28" width="3.99" height="3.99"/><rect class="cls-5" x="97.84" y="40.22" width="22.65" height="3.99"/><rect class="cls-4" x="71.63" y="36.36" width="3.86" height="3.86"/><rect class="cls-2" x="71.63" y="31.91" width="3.86" height="4.51"/><rect class="cls-4" x="67.56" y="27.94" width="4.17" height="3.96"/><rect class="cls-6" x="71.63" y="28.05" width="3.86" height="3.86"/><rect class="cls-4" x="71.63" y="23.97" width="3.86" height="4.25"/><rect class="cls-1" x="60.43" y="20.13" width="3.84" height="3.84"/><rect class="cls-1" x="52.2" y="31.96" width="4.12" height="7.72"/><rect class="cls-4" x="56.32" y="28.08" width="4.11" height="3.88"/><polygon class="cls-6" points="44.03 28.23 48.14 28.23 48.14 32.34 44.03 32.34 44.03 28.46 39.91 28.46 39.91 24.35 31.69 24.35 31.69 20.23 39.92 20.23 39.92 24.35 44.03 24.35 44.03 28.23"/><rect class="cls-1" x="35.8" y="15.82" width="4.12" height="4.11"/><rect class="cls-6" x="31.69" y="7.92" width="4.11" height="4.12"/><rect class="cls-1" x="28.25" y="28.23" width="4.11" height="4.11"/><rect class="cls-1" x="24.13" y="12.04" width="4.12" height="4.11"/><rect class="cls-1" x="12.09" y="36.11" width="4.12" height="4.11"/><rect class="cls-6" x="49.01" y="40.22" width="4.12" height="4.12"/><rect class="cls-5" x="44.03" y="0.25" width="4.11" height="4.11"/><rect class="cls-1" x="39.91" y="4.36" width="4.12" height="4.12"/><rect class="cls-5" x="52.02" y="0.25" width="4.12" height="4.11"/><rect class="cls-5" x="75.66" y="0.25" width="4.12" height="4.11"/><rect class="cls-5" x="72.07" y="44.22" width="4.12" height="4.11"/><rect class="cls-5" x="80.1" y="44.22" width="4.12" height="4.11"/><rect class="cls-5" x="84.37" y="0.13" width="4.12" height="4.11"/><polygon class="cls-5" points="48.14 44.34 48.14 48.45 39.91 48.45 39.91 44.34 35.8 44.34 35.8 48.45 31.69 48.45 31.69 40.22 39.92 40.22 39.92 44.34 48.14 44.34"/><polygon class="cls-5" points="35.73 4.36 31.62 4.36 31.62 0.25 31.69 0.25 31.69 0 35.8 0 35.8 4.12 35.73 4.12 35.73 4.36"/><rect class="cls-1" x="90.11" y="23.98" width="4.07" height="5.18"/><rect class="cls-4" x="94.18" y="23.98" width="4.07" height="5.18"/><rect class="cls-3" x="98.25" y="23.98" width="16.71" height="5.18"/><rect class="cls-4" x="104.35" y="24.56" width="4.24" height="3.97"/><rect class="cls-4" x="105.3" y="18.71" width="4.24" height="3.97"/><rect class="cls-4" x="107.45" y="14.16" width="4.24" height="3.97"/><rect class="cls-4" x="103.18" y="8.48" width="4.24" height="3.58"/><rect class="cls-4" x="84.5" y="8.56" width="4.24" height="3.97"/><rect class="cls-4" x="95.52" y="8.56" width="4.24" height="3.97"/><rect class="cls-4" x="107.42" y="32.76" width="4.24" height="3.97"/><rect class="cls-2" x="79.52" y="36.25" width="4.07" height="4.08"/><rect class="cls-3" x="114.96" y="8.48" width="5.53" height="31.74"/></g></g></g></svg>