<svg xmlns="http://www.w3.org/2000/svg" viewBox="0 0 35.96 67.86"><defs><style>.cls-1{fill:#a76735;}.cls-2{fill:#ffc181;}.cls-3{fill:#3c1221;}.cls-4{fill:#956961;}.cls-5{fill:#2b1835;}.cls-6{fill:#602839;}.cls-7{fill:#ddc0a9;}.cls-8{fill:#000410;}.cls-9{fill:#2e182b;}</style></defs><title>tyrion_lanister</title><g id="Calque_2" data-name="Calque 2"><g id="Perso_2" data-name="Perso 2"><polygon class="cls-1" points="35.96 15.82 35.96 23.7 32.05 23.7 32.05 11.98 28.01 11.98 28.01 7.91 23.97 7.91 23.97 11.98 19.93 11.98 19.93 15.82 11.99 15.82 11.99 19.8 7.82 19.8 7.82 28 4.04 28 4.04 23.7 0 23.7 0 7.94 4.04 7.94 4.04 0 28.01 0 28.01 3.95 32.05 3.95 32.05 9.9 34 9.9 34 15.82 35.96 15.82"/><polygon class="cls-2" points="32.05 11.98 32.05 28 24.03 28 24.03 31.97 11.99 31.97 11.99 28 7.82 28 7.82 19.8 11.99 19.8 11.99 15.82 19.93 15.82 19.93 11.98 23.97 11.98 23.97 7.91 28.01 7.91 28.01 11.98 32.05 11.98"/><path class="cls-3" d="M22.66,36v4h1V36Z"/><rect class="cls-4" x="11.98" y="35.96" width="4.03" height="3.98"/><rect class="cls-5" x="22.66" y="35.96" width="2.33" height="3.98"/><path class="cls-3" d="M28,32V28H24v4H12V28H7.82v4H4v8H8v8H27.84v-8h4.21V32Zm-12,8H12V36h4Zm10,0H22.66V36H26Z"/><rect class="cls-6" x="24.99" y="35.96" width="1" height="3.98"/><rect class="cls-6" x="4.01" y="39.94" width="3.99" height="7.96"/><rect class="cls-6" x="27.84" y="39.94" width="4.21" height="7.75"/><rect class="cls-7" x="8" y="47.9" width="4.06" height="4.06"/><rect class="cls-7" x="23.9" y="47.9" width="4.06" height="4.06"/><polygon class="cls-8" points="23.9 47.9 23.9 51.96 19.98 51.96 19.98 59.92 15.98 59.92 15.98 51.96 12.06 51.96 12.06 47.9 23.9 47.9"/><rect class="cls-8" x="8" y="59.92" width="4.06" height="7.94"/><rect class="cls-8" x="19.98" y="59.92" width="3.92" height="7.94"/><rect class="cls-9" x="8" y="51.96" width="7.98" height="7.96"/><rect class="cls-9" x="19.98" y="51.96" width="7.98" height="7.98"/></g></g></svg>